<svg version="1.1" id="Layer_1" xmlns="http://www.w3.org/2000/svg" xmlns:xlink="http://www.w3.org/1999/xlink" x="0px" y="0px" width="100px" height="100px" viewBox="0 0 500 500" enable-background="new 0 0 500 500" xml:space="preserve">
    <g id="img">
        <animateTransform attributeName="transform"
                type="scale"
                additive="sum" 
                values="0.95;1;0.95"
                begin="0s"
                dur="2s"
                keyTimes="0;0.5;1"
                repeatCount="indefinite"
            />
            <animateTransform attributeName="transform" attributeType="XML" type="rotate" values="5 250 250;-5 250 250;5 250 250" keyTimes="0;0.5;1" dur="2s" repeatCount="indefinite" />
        <g id="spin">
            <circle fill="none" stroke="#8d9ac1" stroke-width="15" opacity=".7" stroke-miterlimit="10" stroke-dasharray="60.0519,29.0251" cx="250" cy="250" r="241">
                <animateTransform attributeName="transform" attributeType="XML" type="rotate" from="0 250 250" to="360 250 250" dur="10s" repeatCount="indefinite" />
            </circle>
        </g>
        <circle id="bg" fill="#a0acd0" cx="250" cy="250" r="232" />
        <path id="_x31_" fill="#FFFFFF" d="M144,303c0,6.627-5.373,12-12,12h-21c-6.627,0-12-5.373-12-12V174c0-6.627,5.373-12,12-12h21
        c6.627,0,12,5.373,12,12V303z">
            <animateTransform id="asd" attributeName="transform" attributeType="XML" type="translate" dur="1s" values="0,20;0,-20;0,20" repeatCount="indefinite" />
        </path>
        <path id="_x32_" fill="#FFFFFF" d="M198,303c0,6.627-5.373,12-12,12h-21c-6.627,0-12-5.373-12-12V174c0-6.627,5.373-12,12-12h21
        c6.627,0,12,5.373,12,12V303z">
            <animateTransform id="asd" attributeName="transform" attributeType="XML" type="translate" begin=".1" dur="1s" values="0,20;0,-20;0,20" repeatCount="indefinite" />
        </path>
        <path id="_x33_" fill="#FFFFFF" d="M252,303c0,6.627-5.372,12-12,12h-21c-6.627,0-12-5.373-12-12V174c0-6.627,5.373-12,12-12h21
        c6.628,0,12,5.373,12,12V303z">
            <animateTransform id="asd" attributeName="transform" attributeType="XML" type="translate" begin=".2" dur="1s" values="0,20;0,-20;0,20" repeatCount="indefinite" />
        </path>
        <path id="_x34_" fill="#FFFFFF" d="M306,303c0,6.627-5.372,12-12,12h-21c-6.627,0-12-5.373-12-12V174c0-6.627,5.373-12,12-12h21
        c6.628,0,12,5.373,12,12V303z">
            <animateTransform id="asd" attributeName="transform" attributeType="XML" type="translate" begin=".3" dur="1s" values="0,20;0,-20;0,20" repeatCount="indefinite" />
        </path>
        <path id="_x35_" fill="#FFFFFF" d="M360,303c0,6.627-5.372,12-12,12h-21c-6.627,0-12-5.373-12-12V174c0-6.627,5.373-12,12-12h21
        c6.628,0,12,5.373,12,12V303z">
            <animateTransform id="asd" attributeName="transform" attributeType="XML" type="translate" begin=".4" dur="1s" values="0,20;0,-20;0,20" repeatCount="indefinite" />
        </path>
        <path id="_x36_" fill="#FFFFFF" d="M414,303c0,6.627-5.372,12-12,12h-21c-6.627,0-12-5.373-12-12V174c0-6.627,5.373-12,12-12h21
        c6.628,0,12,5.373,12,12V303z">
            <animateTransform id="asd" attributeName="transform" attributeType="XML" type="translate" begin=".5" dur="1s" values="0,20;0,-20;0,20" repeatCount="indefinite" />
        </path>
    </g>
</svg>